<?xml version="1.0" encoding="UTF-8"?>
<svg width="40px" height="40px" viewBox="0 0 40 40" version="1.1" xmlns="http://www.w3.org/2000/svg" xmlns:xlink="http://www.w3.org/1999/xlink">
    <title>Fill 1</title>
    <desc>Created with Sketch.</desc>
    <defs></defs>
    <g id="Symbols" stroke="none" stroke-width="1" fill="none" fill-rule="evenodd">
        <g id="Header/Homepage-1" transform="translate(-25.000000, -22.000000)" fill="#FFFFFF">
            <g id="Header/Homepage">
                <g id="Fill-1">
                    <path d="M41.1673269,56.1701721 C41.6599625,56.3884672 42.2383218,56.0967121 42.9039992,55.6552164 C42.0138949,55.4061392 41.5560883,55.2277014 40.7834709,54.9229467 C40.76483,55.0520842 40.7409156,55.2551722 40.7385855,55.3679989 C40.7687544,55.6602445 40.8671098,56.0371102 41.1673269,56.1701721 M39.7908414,54.4699231 C38.8354938,53.9948247 38.692253,53.8772151 38.2045229,53.5769981 C37.5649673,54.8606468 39.0665432,55.0047461 39.7908414,54.4699231 M61.575833,30.8058768 C61.1370354,31.6204363 60.6527391,32.4173361 60.2989294,33.1182105 C60.777339,33.818717 61.1699023,34.7940545 61.1928355,34.8388173 C62.3415828,37.0856624 62.2838204,40.4107382 61.9436235,41.9583032 C61.8267497,42.4901829 61.6219448,44.1895733 61.5071559,45.3377074 C61.4368845,46.0404214 60.3233343,47.7894801 60.1521321,48.0656602 C59.7018065,48.7924112 58.5602948,51.0995941 58.1950798,51.7097166 C57.8667787,52.2581523 57.0010792,52.0683092 56.4443041,51.5672116 C56.1055788,51.2624569 55.5593505,50.1440012 55.5405869,50.123766 C55.3930538,50.6357783 53.2346304,55.0043782 52.2641984,55.6200194 C51.6046529,56.0383365 46.1092579,58.234287 44.9157479,58.4890055 C43.1838584,58.8585129 43.1308789,57.3873511 43.1105211,57.0710685 C40.2495064,57.8918826 39.9743074,56.222661 39.8524055,55.6569333 C37.6188053,56.3857691 36.5496499,55.0994224 37.1445653,52.8192198 C36.9785139,52.6833372 34.8833716,50.8072258 34.5417029,50.4991599 C34.2290995,50.7872359 33.8014618,51.0873303 33.3104205,51.1596865 C32.564906,51.3013331 32.3528654,50.8654787 31.7134325,49.6974773 C31.3587643,49.0495824 28.7631376,45.1565715 28.6557069,42.8111257 C28.5552667,40.6143167 28.1961835,39.3255172 28.3660367,38.6306521 C28.9271042,36.3337707 30.0003066,34.360285 30.0003066,34.360285 C30.0003066,34.360285 29.0504777,33.1352571 27.7808097,31.8287978 C26.0162985,34.8093842 25,38.2853043 25,42 C25,53.0457316 33.954391,62 45,62 C56.0457316,62 65,53.0457316 65,42 C65,37.8526385 63.7373223,34.0003434 61.575833,30.8058768 M40.8341203,27.8214886 C40.9722103,28.1557989 41.0976687,28.6524816 41.2745122,28.9471799 C41.3919991,29.1429097 43.3190052,29.8538404 44.4795256,31.7820728 C45.0977422,30.7364639 45.7381563,29.9805251 46.8734134,29.3500448 C48.0973375,28.670264 48.0973375,28.7106118 48.268785,27.7880085 C48.5965956,26.0233747 48.947462,24.243166 49.3146393,22.4719098 C47.924541,22.1660514 46.4819539,22 45,22 C42.9685066,22 41.0086337,22.3052452 39.1613421,22.8682749 C39.3711752,23.5899977 39.5870176,24.4033308 39.7654554,24.8801462 C40.1280951,25.8488613 40.438859,26.8655278 40.8341203,27.8214886 M32.1934364,31.7640451 C32.2302277,31.7441778 32.2862732,31.729216 32.2713114,31.7820728 C30.7060865,34.5625146 29.4817944,38.1999485 29.9042813,40.4758588 C30.0482579,41.252278 30.2197054,43.5124906 30.4998099,44.1379429 C30.8601194,44.942814 31.7449504,46.7130891 32.680676,48.7893452 C33.3274672,50.2244515 34.0260115,49.1420512 34.0625575,47.7724335 C34.0800947,47.1131333 33.7194172,46.1923695 33.7504446,45.6964227 C33.831876,44.3937651 33.8085748,43.2640267 33.446671,41.8279393 C33.3939368,41.6187194 33.3408347,41.5833998 33.6993046,41.4449418 C35.8317288,40.6211844 36.4027299,39.4561264 37.1105947,38.5493433 C37.1569517,38.5248157 37.1990164,38.5391643 37.1882243,38.6235391 C37.0584737,39.6398376 35.5412001,41.2169583 35.0629131,42.2855005 C34.9551146,42.5262383 35.3210655,44.0276916 35.2241817,45.8990201 C35.1963429,46.4370317 35.4736268,46.9462234 35.4986449,47.5442048 C35.525012,48.1776284 35.2130217,48.8986154 35.3381121,49.0678554 C35.508088,49.2975558 37.2778725,51.6558786 40.0775683,53.1537754 C42.7543812,54.5859384 46.138691,55.7961271 46.7538416,54.7635177 C46.9113084,54.4992335 46.8873941,54.1830735 46.7981138,53.9592598 C46.6428545,53.5695172 45.9062925,53.0534578 44.4744975,52.9126697 C43.7080119,52.8373702 40.13251,50.5895439 39.815369,50.1762549 C39.2281797,49.4114862 37.7928281,47.0844361 37.5275628,46.6743356 C37.5070823,46.6426951 37.5188555,46.5621221 37.5529488,46.5460566 C38.2456065,46.2188592 38.8819735,45.972848 39.5152745,45.5480311 C39.6382801,45.4654959 39.7596914,45.4797219 39.5716879,45.6288493 C38.5190886,46.4636441 38.6159723,46.3789014 39.3781656,47.7097656 C39.7025423,48.2761065 40.499442,49.464711 40.819649,49.6928171 C41.3787542,50.0911443 42.7663997,50.9162507 43.1838584,51.2533817 C43.7273887,51.692302 43.9572117,51.8344391 44.6047387,51.9521713 C45.7762966,52.1653156 46.8974504,52.4293546 47.6793883,53.1984155 C49.088618,54.5842214 50.2182338,52.8490207 49.558443,52.2097105 C48.9766498,51.6458223 48.5522007,51.3053801 47.783385,51.0908868 C47.0469457,50.885346 46.2478385,50.748605 45.6508382,50.4672741 C45.1236188,50.2189328 44.1932893,49.4992948 43.3988423,49.0835531 C42.5620853,48.6457365 42.2440858,48.2368624 41.8460039,47.5639494 C41.3104451,46.6583927 40.8010081,45.8105983 40.4658393,45.1272611 C40.4102844,45.0140665 40.4663298,44.9799733 40.4899989,44.9639077 C41.0672545,44.5703634 41.7573368,44.1388013 42.2859053,43.6849192 C42.3759213,43.6075349 42.4263254,43.6758441 42.3544597,43.7413326 C41.891993,44.1635742 41.477355,44.6245692 41.7626102,45.1977778 C42.1826443,46.0416478 42.7657865,47.0846813 43.2671294,47.6703989 C43.6449761,48.1118946 45.5072295,49.2055776 45.9461498,49.462013 C46.7911235,49.9556297 47.6526533,49.9779497 48.6645369,50.3369103 C49.9193657,50.7818398 50.403662,51.442857 50.7230105,52.0236691 C50.8320354,52.2220969 52.244699,51.4048393 50.9928134,50.4335488 C50.4805558,50.0362026 50.0173532,49.7646828 49.4687948,49.4962289 C48.3189438,48.9333219 46.9655143,47.7491323 46.2309145,47.3248059 C45.4688439,46.8845366 45.0372819,46.4198624 44.7138863,45.934953 C44.0203701,44.8949853 43.4899621,43.9655143 43.1197189,43.1101164 C43.1096626,43.0866926 43.0878331,43.010044 43.1458407,42.9597626 C43.6929275,42.4849094 44.1484039,41.9753498 44.5462405,41.4716768 C44.5783716,41.4309611 44.8836168,41.1614035 44.644596,41.5440331 C43.9676359,42.6282729 43.9958426,42.5718596 44.3208325,43.2907617 C44.4863933,43.6569578 45.0556775,44.6624643 45.1745134,44.9181639 C45.5484358,45.7226671 46.3047424,46.250745 46.918544,46.6723734 C47.5663163,47.117303 48.8124379,48.1776284 50.0378337,48.7345262 C50.2715812,48.8407304 51.2176083,49.3041783 51.2898419,49.343545 C51.7286396,49.5825658 52.1166652,48.5514281 51.0580567,47.6572767 C49.8801217,46.6624398 49.1862376,46.2795649 47.9811996,45.3274058 C47.4341129,44.8952306 47.2037993,44.6107112 47.0332103,44.0310028 C46.8686305,43.4720202 46.3972112,42.3464515 46.3789382,42.3075753 C45.6976858,40.8609411 45.3511117,40.5261402 45.2103236,39.967035 C44.9094934,38.7736476 45.3590832,37.7932819 44.4968176,35.1782784 C44.2528912,34.5811555 43.9822298,33.9683349 43.7446806,33.4566905 C43.7367091,33.4422193 43.7292282,33.4270122 43.7212568,33.4126636 C43.2857703,32.6296219 42.7846727,31.954992 42.335083,31.4852896 C41.5009014,30.6135809 40.2742792,29.3982414 36.8253394,29.1682957 C36.7851142,29.1655977 36.6770704,29.1259857 36.8199433,29.0726383 C37.9954256,28.7700911 38.3779326,28.8122785 39.1777756,28.7883641 C38.6998565,27.7269349 38.0653291,26.3332802 37.58741,25.271851 C37.4705363,25.0121043 37.176819,24.3708319 36.884696,23.7210974 C33.7260397,25.1256668 30.9966152,27.3202683 28.9544524,30.0602396 C29.5361229,30.7776701 31.0927631,32.7044309 31.0927631,32.7044309 C31.0927631,32.7044309 31.7639592,31.9954624 32.1934364,31.7640451 M52.5514159,28.6934426 C52.611263,28.7266774 52.6171497,28.7707043 52.4932856,28.7629781 C50.2634871,28.6214542 45.9015097,30.7987638 45.4519199,33.7170503 C45.3501306,34.3779448 46.0489202,35.5774641 46.1944911,36.5548865 C46.2799696,37.1287083 46.4077581,38.8231932 46.4077581,38.8231932 C46.3167609,39.8749341 47.7627819,42.4256754 48.0567445,43.261206 C48.2513705,43.8141794 48.8233527,44.3358801 49.7057309,44.828761 C50.740793,45.4068751 51.4204511,45.8153812 52.8759152,46.1261451 C52.9217817,46.1359561 52.9349039,46.2000957 52.8930845,46.2214346 C52.1573809,46.5979323 51.0876124,46.486332 51.0876124,46.486332 C51.0876124,46.486332 51.8345985,46.9359218 52.3262531,47.7355196 C53.0119204,48.8505414 52.6225457,49.5420954 52.2680001,49.9956096 C52.0947131,50.2173385 52.0811003,50.2118198 52.1749181,50.4265584 C52.7339007,51.7076317 51.6756601,53.0050159 50.8550913,52.8714634 C50.7026527,52.846568 50.7188408,52.8344269 50.6841344,52.9654039 C50.5374597,53.5187452 50.4046431,54.7622914 48.2207111,54.4373015 C48.2207111,54.4373015 48.2474461,54.7042837 48.223777,54.8144124 C48.098196,55.3986583 47.6506911,55.7267142 47.3091451,55.8738794 C46.4943403,56.2247458 45.2103236,56.1157209 44.3084461,55.9716216 C44.0176721,56.8097276 44.444206,57.3634368 45.0900161,57.2823733 C45.7062705,57.2049889 50.6702763,55.1443078 51.3201334,54.7622914 C52.1183822,54.2929569 52.2123226,53.8118493 52.8041721,52.9001607 C53.496094,51.8343165 54.4541396,49.5202659 54.751904,48.9161526 C54.9961982,48.4206963 55.3025472,47.5299788 55.2866043,46.676911 C55.2808403,46.3661471 55.2940852,45.3939981 55.1298733,44.5658258 C55.0282067,44.0533229 55.1741455,42.9488478 55.1829754,42.7883151 C55.1856735,42.7407317 53.1065967,40.4107382 52.5951975,38.0613679 C52.5839148,38.0094922 52.6494034,37.9778516 52.6790817,38.0218786 C53.1664439,38.7465447 54.739027,40.9228732 56.4367006,41.59922 C56.6229872,41.6734158 56.6879852,41.7812144 56.5739321,42.0959027 C56.3602973,42.68579 56.2574043,43.6911738 56.2761678,44.0901142 C56.3335623,45.3196797 56.5438859,45.8678702 56.2748188,46.9638832 C56.121767,47.5870053 56.094664,48.4132154 56.4059185,49.2238506 C56.6806269,49.938951 57.2486847,50.5701672 57.6506911,50.1417937 C57.9695491,49.8020873 58.5259563,47.9192308 58.967084,46.9754111 C59.0992875,46.6923634 59.9197336,45.5168811 60.008278,44.8196858 C60.193093,43.3643443 60.5828356,41.793846 60.6153346,41.651341 C60.7139353,41.2178168 60.7173692,40.2081407 60.6930869,39.5044456 C60.6607106,38.5668805 60.2864203,36.3231013 60.0006745,35.510136 C59.445739,33.9315436 58.1007714,31.1025374 57.804724,30.747256 C57.7593481,30.6928048 57.6998688,30.5647711 57.8651844,30.6833617 C57.8651844,30.6833617 58.4206105,31.097264 58.8002968,31.5630419 C59.226708,30.4542745 59.5165009,29.7009112 59.9109037,28.6754148 C57.7235379,26.2294061 54.9449357,24.3243522 51.7976846,23.1868876 C51.2951153,25.0056045 50.5244601,27.670031 50.3157307,28.4297715 C50.7941404,28.4170172 52.1285611,28.4585914 52.5514159,28.6934426"></path>
                </g>
            </g>
        </g>
    </g>
</svg>